<?xml version="1.0" encoding="utf-8"?>
<!-- Generator: Adobe Illustrator 18.1.1, SVG Export Plug-In . SVG Version: 6.00 Build 0)  -->
<svg version="1.1" id="Layer_1" xmlns="http://www.w3.org/2000/svg" xmlns:xlink="http://www.w3.org/1999/xlink" x="0px" y="0px"
	 viewBox="0 0 593.8 766.5" enable-background="new 0 0 593.8 766.5" xml:space="preserve">
<g>
	<path d="M262.5,0c109,99.4,218.1,198.8,331.1,301.8c-43.9,34.6-84.5,66.6-127.3,100.4c-79.2-71.7-156-141.4-239.2-216.8
		c39.7,108.7,76.8,210.3,114.8,314.3c-36,28.5-70.6,56-108,85.6C155.5,533.4,77.8,481.9,0,430.5C0,369.2,0,308,0,246.7
		C33.1,266,66.1,285.3,105.1,308C68.3,209.5,34.2,117.9,0,26.2C0,17.5,0,8.7,0,0C87.5,0,175,0,262.5,0z"/>
	<path d="M0,493.5c11.2,17.4,23.4,34.3,33.5,52.4c25.1,44.7,49.2,89.9,74.7,136.8c-35.7,29-69.3,56.4-103,83.8
		c-1-2.9-4.1-9.6-5.3-12.6c0-0.3,0-1.7,0-3.4C0,664.8,0,579.2,0,493.5z"/>
</g>
</svg>
